<?xml version="1.0" encoding="UTF-8" standalone="no"?>
<!-- Created with Inkscape (http://www.inkscape.org/) -->

<svg
   version="1.1"
   id="svg2"
   width="563.69336"
   height="230.20799"
   viewBox="0 0 563.69336 230.20799"
   xmlns="http://www.w3.org/2000/svg"
   xmlns:svg="http://www.w3.org/2000/svg">
  <defs
     id="defs6">
    <clipPath
       clipPathUnits="userSpaceOnUse"
       id="clipPath16">
      <path
         d="M 0,0 H 841.89 V 595.276 H 0 Z"
         id="path14" />
    </clipPath>
  </defs>
  <g
     id="g8"
     transform="matrix(1.3333333,0,0,-1.3333333,-303.96,597.62133)">
    <g
       id="g10">
      <g
         id="g12"
         clip-path="url(#clipPath16)">
        <path
           d="m 623.622,617.717 c 0,0 -22.677,0 -22.677,-22.678 v -31.181 c 0,0 0,-22.677 22.677,-22.677 h 236.221 c 0,0 22.677,0 22.677,22.677 v 31.181 c 0,0 0,22.678 -22.677,22.678 z"
           style="fill:#fecc00;fill-opacity:1;fill-rule:nonzero;stroke:none"
           id="path18" />
        <text
           xml:space="preserve"
           transform="matrix(1,0,0,-1,625.748,557.4874)"
           style="font-variant:normal;font-weight:normal;font-stretch:normal;font-size:12px;font-family:'Franklin Gothic Book';-inkscape-font-specification:FranklinGothic-Book;writing-mode:lr-tb;fill:#000000;fill-opacity:1;fill-rule:nonzero;stroke:none"
           id="text22"><tspan
             x="0 6.8039999 15.576 24.540001 32.952 40.452 47.771999 55.68 59.880001 64.080002"
             y="0"
             id="tspan20">logotyp - </tspan></text>
        <text
           xml:space="preserve"
           transform="matrix(1,0,0,-1,694.0332,557.4874)"
           style="font-variant:normal;font-weight:normal;font-stretch:normal;font-size:10px;font-family:'Franklin Gothic Book';-inkscape-font-specification:FranklinGothic-Book;writing-mode:lr-tb;fill:#000000;fill-opacity:1;fill-rule:nonzero;stroke:none"
           id="text26"><tspan
             x="0 6.3899999 12.58 18.92 22.219999 28.639999 34.439999 40.459999 45.959999 52.25 55.75 61.099998 67.300003 71.660004 76.889999"
             y="0"
             id="tspan24">doplňková verze</tspan></text>
        <text
           xml:space="preserve"
           transform="matrix(1,0,0,-1,443.8718,135.2129)"
           style="font-variant:normal;font-weight:normal;font-stretch:normal;font-size:10.8px;font-family:'Franklin Gothic Heavy';-inkscape-font-specification:FranklinGothic-Heavy;writing-mode:lr-tb;fill:#000000;fill-opacity:1;fill-rule:nonzero;stroke:none"
           id="text30"><tspan
             x="0 7.3548002 13.6512 21.059999 24.5268 31.914"
             y="0"
             id="tspan28">HENIG </tspan></text>
        <text
           xml:space="preserve"
           transform="matrix(1,0,0,-1,478.476,135.2129)"
           style="font-variant:normal;font-weight:normal;font-stretch:normal;font-size:10.8px;font-family:'Franklin Gothic Medium';-inkscape-font-specification:FranklinGothic-Medium;writing-mode:lr-tb;fill:#000000;fill-opacity:1;fill-rule:nonzero;stroke:none"
           id="text34"><tspan
             x="0 6.1668 11.9664 18.219601 24.645599 31.59 34.473598 40.132801 45.9972 48.697201 54.863998 60.663601 67.5 73.342796 76.226402"
             y="0"
             id="tspan32">SECURITY SERVIS</tspan></text>
        <text
           xml:space="preserve"
           transform="matrix(1,0,0,-1,409.5485,356.2089)"
           style="font-variant:normal;font-weight:normal;font-stretch:normal;font-size:63.1734px;font-family:'Franklin Gothic Heavy';-inkscape-font-specification:FranklinGothic-Heavy;writing-mode:lr-tb;fill:#000000;fill-opacity:1;fill-rule:nonzero;stroke:none"
           id="text38"><tspan
             x="0 43.021084 79.851181 123.18813 143.4668"
             y="0"
             id="tspan36">HENIG</tspan></text>
        <text
           xml:space="preserve"
           transform="matrix(1,0,0,-1,411.7585,324.9629)"
           style="font-variant:normal;font-weight:normal;font-stretch:normal;font-size:24.1756px;font-family:'Franklin Gothic Medium';-inkscape-font-specification:FranklinGothic-Medium;writing-mode:lr-tb;fill:#000000;fill-opacity:1;fill-rule:nonzero;stroke:none"
           id="text42"><tspan
             x="0 13.804268 26.786564 40.784237 55.16872 70.713631 77.168518"
             y="0"
             id="tspan40">SECURIT</tspan></text>
        <text
           xml:space="preserve"
           transform="matrix(1,0,0,-1,501.6023,324.9629)"
           style="font-variant:normal;font-weight:normal;font-stretch:normal;font-size:24.1756px;font-family:'Franklin Gothic Medium';-inkscape-font-specification:FranklinGothic-Medium;writing-mode:lr-tb;fill:#000000;fill-opacity:1;fill-rule:nonzero;stroke:none"
           id="text46"><tspan
             x="0 13.127351 19.171251 32.975517 45.957817 61.502728 74.581726 81.036613"
             y="0"
             id="tspan44">Y SERVIS</tspan></text>
        <path
           d="m 372.518,316.453 c -12.332,-8.26 -30.84,-3.44 -48.508,-13.206 -22.116,11.634 -41.494,3.696 -54.042,17.947 -12.151,13.858 15.448,39.747 1.35,66.749 -2.539,4.763 -6.233,10.4 -11.475,16.555 l 5.078,7.779 z"
           style="fill:#000000;fill-opacity:1;fill-rule:nonzero;stroke:none"
           id="path48" />
        <path
           d="m 380.503,395.86 c 2.215,3.57 5.984,6.629 8.171,8.569 l -9.05,20.021 c -23.871,-9.96 -24.953,9.959 -53.332,9.959 -28.045,0 -29.979,-20.799 -54.224,-10.792 l -6.401,-10.153 71.961,-63.746 35.629,-31.562 0.625,-0.558 c 1.222,0.845 2.308,1.851 4.324,4.234 12.988,15.17 -13.242,36.702 -1.16,67.04 0.945,2.377 2.054,4.664 3.457,6.988"
           style="fill:#e2001a;fill-opacity:1;fill-rule:nonzero;stroke:none"
           id="path50" />
        <path
           d="m 317.547,321.798 c -8.561,-1.872 -17.868,0.035 -25.184,6.005 -7.406,6.04 -11.147,14.91 -10.933,23.782 13.889,-13.242 36.117,-29.787 36.117,-29.787"
           style="fill:#fecc00;fill-opacity:1;fill-rule:nonzero;stroke:none"
           id="path52" />
        <path
           d="m 293.252,346.633 c 10.243,4.817 20.87,-5.696 18.825,-14.803 -0.13,7.923 -8.195,17.661 -18.825,14.803"
           style="fill:#fecc00;fill-opacity:1;fill-rule:nonzero;stroke:none"
           id="path54" />
        <path
           d="m 293.411,351.99 c 12.987,6.107 26.457,-7.221 23.862,-18.761 -0.164,10.043 -10.386,22.385 -23.862,18.761"
           style="fill:#fecc00;fill-opacity:1;fill-rule:nonzero;stroke:none"
           id="path56" />
        <path
           d="m 294.99,358.086 c 14.868,6.988 30.286,-8.268 27.317,-21.479 -0.191,11.496 -11.89,25.627 -27.317,21.479"
           style="fill:#fecc00;fill-opacity:1;fill-rule:nonzero;stroke:none"
           id="path58" />
        <path
           d="m 264.812,412.114 1,1.594 108.355,-95.896 c 0,0 -0.5,-0.469 -1.043,-0.916 -0.539,-0.448 -1.094,-0.782 -1.094,-0.782 l -107.447,95.698 z"
           style="fill:#fecc00;fill-opacity:1;fill-rule:nonzero;stroke:none"
           id="path60" />
        <path
           d="m 357.643,397.759 c -12.445,-0.153 -23.941,-0.153 -35.707,0.112 -0.336,0.718 -2.787,15.666 -2.787,15.666 l 11.295,-9.597 9.07,13.696 8.403,-13.786 11.648,9.687 c 0,0 -1.828,-15.362 -1.922,-15.778"
           style="fill:#fecc00;fill-opacity:1;fill-rule:nonzero;stroke:none"
           id="path62" />
        <path
           d="m 343.01,391.867 -0.183,-0.172 c -1.465,-1.391 -1.526,-3.717 -0.133,-5.184 l 2.806,-2.956 c 0.672,-0.708 1.582,-1.112 2.565,-1.138 0.982,-0.025 1.912,0.331 2.619,1.004 l 0.184,0.175 c 0.707,0.671 1.111,1.582 1.136,2.563 0.026,0.983 -0.33,1.913 -1.004,2.62 l -2.806,2.956 c -0.672,0.708 -1.582,1.113 -2.563,1.138 -0.982,0.025 -1.912,-0.332 -2.621,-1.006 m 1.375,-1.453 c 0.324,0.309 0.748,0.471 1.193,0.459 0.448,-0.012 0.862,-0.194 1.167,-0.514 l 2.806,-2.957 c 0.305,-0.321 0.465,-0.744 0.453,-1.191 -0.011,-0.447 -0.193,-0.861 -0.513,-1.165 l -0.186,-0.176 c -0.32,-0.303 -0.742,-0.465 -1.189,-0.454 -0.448,0.012 -0.862,0.194 -1.166,0.516 l -2.807,2.956 c -0.633,0.667 -0.606,1.723 0.062,2.356 l -0.003,-0.003 z"
           style="fill:#fecc00;fill-opacity:1;fill-rule:nonzero;stroke:none"
           id="path64" />
        <path
           d="m 327.836,370.845 1.477,-1.585 15.896,15.389 -1.478,1.585 z"
           style="fill:#fecc00;fill-opacity:1;fill-rule:nonzero;stroke:none"
           id="path66" />
        <path
           d="m 326.014,372.725 1.934,-2.039 4.351,4.132 -1.935,2.039 z"
           style="fill:#fecc00;fill-opacity:1;fill-rule:nonzero;stroke:none"
           id="path68" />
        <path
           d="m 332.397,392.873 c -0.981,-0.025 -1.891,-0.43 -2.563,-1.138 l -2.806,-2.956 c -0.674,-0.707 -1.03,-1.637 -1.004,-2.62 0.025,-0.981 0.429,-1.892 1.138,-2.564 l 0.182,-0.174 c 0.707,-0.673 1.637,-1.029 2.619,-1.004 0.983,0.026 1.893,0.43 2.565,1.138 l 2.806,2.956 c 1.393,1.467 1.332,3.793 -0.132,5.184 l -0.188,0.176 c -0.705,0.67 -1.635,1.027 -2.617,1.002 m -3.674,-8.003 -0.184,0.175 c -0.322,0.305 -0.503,0.719 -0.515,1.166 -0.012,0.447 0.148,0.87 0.453,1.191 l 2.807,2.957 c 0.304,0.32 0.718,0.502 1.166,0.514 0.445,0.012 0.869,-0.15 1.189,-0.455 l 0.188,-0.177 -0.004,0.003 c 0.668,-0.632 0.693,-1.689 0.062,-2.356 l -2.807,-2.956 c -0.304,-0.322 -0.718,-0.504 -1.166,-0.516 -0.447,-0.011 -0.871,0.151 -1.189,0.454"
           style="fill:#fecc00;fill-opacity:1;fill-rule:nonzero;stroke:none"
           id="path70" />
        <path
           d="m 350.192,370.845 -1.477,-1.585 -15.896,15.389 1.478,1.585 z"
           style="fill:#fecc00;fill-opacity:1;fill-rule:nonzero;stroke:none"
           id="path72" />
        <path
           d="m 352.014,372.725 -1.934,-2.039 -4.351,4.132 1.935,2.039 z"
           style="fill:#fecc00;fill-opacity:1;fill-rule:nonzero;stroke:none"
           id="path74" />
        <path
           d="m 434.757,130.551 c -2.133,-1.428 -5.333,-0.595 -8.387,-2.283 -3.824,2.011 -7.174,0.639 -9.344,3.103 -2.101,2.396 2.671,6.872 0.234,11.54 -0.439,0.824 -1.078,1.798 -1.984,2.862 l 0.878,1.345 z"
           style="fill:#000000;fill-opacity:1;fill-rule:nonzero;stroke:none"
           id="path76" />
        <path
           d="m 436.137,144.28 c 0.383,0.617 1.035,1.146 1.413,1.481 l -1.565,3.462 c -4.127,-1.722 -4.314,1.722 -9.221,1.722 -4.849,0 -5.183,-3.596 -9.375,-1.866 l -1.106,-1.755 12.441,-11.022 6.16,-5.457 0.108,-0.096 c 0.212,0.146 0.399,0.32 0.748,0.732 2.245,2.623 -2.29,6.346 -0.201,11.591 0.164,0.411 0.356,0.806 0.598,1.208"
           style="fill:#e2001a;fill-opacity:1;fill-rule:nonzero;stroke:none"
           id="path78" />
        <path
           d="m 425.252,131.475 c -1.48,-0.324 -3.089,0.006 -4.354,1.038 -1.28,1.045 -1.927,2.578 -1.89,4.112 2.401,-2.289 6.244,-5.15 6.244,-5.15"
           style="fill:#fecc00;fill-opacity:1;fill-rule:nonzero;stroke:none"
           id="path80" />
        <path
           d="m 421.052,135.769 c 1.771,0.833 3.608,-0.985 3.255,-2.559 -0.023,1.369 -1.417,3.053 -3.255,2.559"
           style="fill:#fecc00;fill-opacity:1;fill-rule:nonzero;stroke:none"
           id="path82" />
        <path
           d="m 421.079,136.695 c 2.246,1.056 4.575,-1.248 4.126,-3.244 -0.028,1.737 -1.796,3.871 -4.126,3.244"
           style="fill:#fecc00;fill-opacity:1;fill-rule:nonzero;stroke:none"
           id="path84" />
        <path
           d="m 421.352,137.749 c 2.571,1.208 5.237,-1.429 4.723,-3.714 -0.033,1.988 -2.055,4.431 -4.723,3.714"
           style="fill:#fecc00;fill-opacity:1;fill-rule:nonzero;stroke:none"
           id="path86" />
        <path
           d="m 416.135,147.09 0.173,0.276 18.734,-16.58 c 0,0 -0.087,-0.081 -0.181,-0.159 -0.093,-0.077 -0.189,-0.135 -0.189,-0.135 l -18.577,16.546 z"
           style="fill:#fecc00;fill-opacity:1;fill-rule:nonzero;stroke:none"
           id="path88" />
        <path
           d="m 432.185,144.608 c -2.152,-0.026 -4.14,-0.026 -6.174,0.02 -0.058,0.124 -0.482,2.708 -0.482,2.708 l 1.953,-1.659 1.568,2.368 1.453,-2.384 2.014,1.675 c 0,0 -0.316,-2.656 -0.332,-2.728"
           style="fill:#fecc00;fill-opacity:1;fill-rule:nonzero;stroke:none"
           id="path90" />
        <path
           d="m 429.655,143.59 -0.032,-0.03 c -0.253,-0.241 -0.264,-0.643 -0.023,-0.896 l 0.485,-0.512 c 0.116,-0.122 0.274,-0.192 0.444,-0.196 0.169,-0.005 0.33,0.057 0.453,0.173 l 0.031,0.031 c 0.122,0.116 0.192,0.273 0.197,0.443 0.004,0.17 -0.057,0.331 -0.174,0.453 l -0.485,0.511 c -0.116,0.122 -0.274,0.192 -0.443,0.197 -0.17,0.004 -0.331,-0.058 -0.453,-0.174 m 0.237,-0.252 c 0.057,0.054 0.13,0.082 0.207,0.08 0.077,-0.002 0.149,-0.034 0.201,-0.089 l 0.486,-0.511 c 0.052,-0.056 0.08,-0.129 0.078,-0.206 -0.002,-0.078 -0.033,-0.149 -0.089,-0.202 l -0.032,-0.03 c -0.055,-0.053 -0.128,-0.08 -0.206,-0.079 -0.077,0.002 -0.149,0.034 -0.201,0.09 l -0.485,0.511 c -0.11,0.115 -0.105,0.298 0.01,0.407 v 0 z"
           style="fill:#fecc00;fill-opacity:1;fill-rule:nonzero;stroke:none"
           id="path92" />
        <path
           d="m 427.031,139.955 0.256,-0.274 2.748,2.661 -0.256,0.274 z"
           style="fill:#fecc00;fill-opacity:1;fill-rule:nonzero;stroke:none"
           id="path94" />
        <path
           d="m 426.716,140.28 0.335,-0.353 0.752,0.715 -0.335,0.352 z"
           style="fill:#fecc00;fill-opacity:1;fill-rule:nonzero;stroke:none"
           id="path96" />
        <path
           d="m 427.82,143.764 c -0.17,-0.005 -0.327,-0.075 -0.443,-0.197 l -0.486,-0.511 c -0.116,-0.122 -0.177,-0.283 -0.173,-0.453 0.004,-0.17 0.074,-0.327 0.197,-0.444 l 0.031,-0.03 c 0.122,-0.116 0.283,-0.178 0.453,-0.173 0.17,0.004 0.327,0.074 0.443,0.196 l 0.486,0.512 c 0.24,0.253 0.23,0.655 -0.023,0.896 l -0.033,0.03 c -0.122,0.116 -0.282,0.178 -0.452,0.174 m -0.635,-1.384 -0.032,0.03 c -0.056,0.053 -0.087,0.124 -0.089,0.202 -0.002,0.077 0.025,0.15 0.078,0.206 l 0.485,0.511 c 0.053,0.055 0.125,0.087 0.202,0.089 0.077,0.002 0.15,-0.026 0.206,-0.079 l 0.032,-0.03 h -0.001 c 0.116,-0.109 0.12,-0.292 0.011,-0.407 l -0.485,-0.511 c -0.053,-0.056 -0.124,-0.088 -0.202,-0.09 -0.077,-10e-4 -0.15,0.026 -0.205,0.079"
           style="fill:#fecc00;fill-opacity:1;fill-rule:nonzero;stroke:none"
           id="path98" />
        <path
           d="m 430.896,139.955 -0.255,-0.274 -2.748,2.661 0.255,0.274 z"
           style="fill:#fecc00;fill-opacity:1;fill-rule:nonzero;stroke:none"
           id="path100" />
        <path
           d="m 431.211,140.28 -0.334,-0.353 -0.752,0.715 0.334,0.352 z"
           style="fill:#fecc00;fill-opacity:1;fill-rule:nonzero;stroke:none"
           id="path102" />
        <path
           d="M 437.425,150.999 H 375.668"
           style="fill:none;stroke:#000000;stroke-width:0.5;stroke-linecap:butt;stroke-linejoin:miter;stroke-miterlimit:4;stroke-dasharray:1.495, 0.995;stroke-dashoffset:0;stroke-opacity:1"
           id="path104" />
        <path
           d="M 374.423,149.242 V 129.671"
           style="fill:none;stroke:#000000;stroke-width:0.5;stroke-linecap:butt;stroke-linejoin:miter;stroke-miterlimit:4;stroke-dasharray:1.505, 1.005;stroke-dashoffset:0;stroke-opacity:1"
           id="path106" />
        <path
           d="m 376.166,128.416 h 61.757"
           style="fill:none;stroke:#000000;stroke-width:0.5;stroke-linecap:butt;stroke-linejoin:miter;stroke-miterlimit:4;stroke-dasharray:1.495, 0.995;stroke-dashoffset:0;stroke-opacity:1"
           id="path108" />
        <path
           d="m 439.168,150.999 h -0.748 m -63.249,0 h -0.748 v -0.753 m 0,-21.077 v -0.753 h 0.748 m 63.249,0 h 0.748"
           style="fill:none;stroke:#000000;stroke-width:0.5;stroke-linecap:butt;stroke-linejoin:miter;stroke-miterlimit:4;stroke-dasharray:none;stroke-opacity:1"
           id="path110" />
        <text
           xml:space="preserve"
           transform="matrix(1,0,0,-1,292.3794,138.2652)"
           style="font-variant:normal;font-weight:normal;font-stretch:normal;font-size:9px;font-family:'Franklin Gothic Book';-inkscape-font-specification:FranklinGothic-Book;writing-mode:lr-tb;fill:#000000;fill-opacity:1;fill-rule:nonzero;stroke:none"
           id="text114"><tspan
             x="0 7.3260002 9.3870001 14.265 16.514999 18.764999 22.68 27.368999 29.438999 31.5 35.82 40.5 44.675999 47.448002 49.698002 54.972 57.222 64.547997"
             y="0"
             id="tspan112">min. velikost 8 mm</tspan></text>
        <text
           xml:space="preserve"
           transform="matrix(1,0,0,-1,625.748,151.7298)"
           style="font-variant:normal;font-weight:normal;font-stretch:normal;font-size:9px;font-family:'Franklin Gothic Book';-inkscape-font-specification:FranklinGothic-Book;writing-mode:lr-tb;fill:#000000;fill-opacity:1;fill-rule:nonzero;stroke:none"
           id="text122"><tspan
             x="0 4.8330002 7.0830002 14.409 19.098 23.976 28.152 30.212999 34.407001 39.266998 41.516998 45.423 50.112 52.181999 54.243 58.563 63.243 67.418999 70.028999 74.718002 78.912003 83.772003 86.022003 88.092003 92.772003 97.191002 101.952 104.202 106.272 110.079 114.768 117.018 121.896 126.657 130.464 134.97301 139.02299"
             y="0"
             id="tspan116">V menších velikostech loga lze název </tspan><tspan
             x="0 5.1209998 10.053 15.264 20.718 26.235001 28.485001 33.209999 37.799999 40.049999 45.171001 50.103001 55.521 60.354 62.604 67.724998 69.974998 74.852997 82.179001 84.239998 88.416 91.188004 93.249001 96.021004"
             y="10.8"
             id="tspan118">SECURIty SERVIS umístit </tspan><tspan
             x="0 3.915 8.6040001 13.455 15.525 20.214001 22.464001 27.341999 32.103001 35.91 39.959999 44.838001 47.088001 52.875 57.806999 63.720001 65.970001 71.792999 74.042999 76.815002 81.575996 86.102997 88.352997 90.602997 95.363998 100.062 103.797 106.047 110.745 114.48 116.55 121.311 123.561 127.368 132.129 134.19 136.25101"
             y="21.6"
             id="tspan120">vedle názvu HENIg tak, aby byla zajiš</tspan></text>
        <text
           xml:space="preserve"
           transform="matrix(1,0,0,-1,766.1797,130.1298)"
           style="font-variant:normal;font-weight:normal;font-stretch:normal;font-size:9px;font-family:'Franklin Gothic Book';-inkscape-font-specification:FranklinGothic-Book;writing-mode:lr-tb;fill:#000000;fill-opacity:1;fill-rule:nonzero;stroke:none"
           id="text126"><tspan
             x="0"
             y="0"
             id="tspan124">-</tspan></text>
        <text
           xml:space="preserve"
           transform="matrix(1,0,0,-1,625.748,119.3298)"
           style="font-variant:normal;font-weight:normal;font-stretch:normal;font-size:9px;font-family:'Franklin Gothic Book';-inkscape-font-specification:FranklinGothic-Book;writing-mode:lr-tb;fill:#000000;fill-opacity:1;fill-rule:nonzero;stroke:none"
           id="text130"><tspan
             x="0 2.7720001 7.461 12.339 17.1 19.35 24.201 28.881001 33.056999 35.828999 40.59 43.181999 47.870998 52.064999 56.943001 61.703999 63.953999 68.148003 70.209 72.819 77.508003 79.578003 84.456001 89.136002 93.311996 96.084"
             y="0"
             id="tspan128">těná dostatečná čitelnost.</tspan></text>
      </g>
    </g>
  </g>
</svg>
